<svg width="15" height="13" fill="none" xmlns="http://www.w3.org/2000/svg"><path d="M7.395 0a6.994 6.994 0 0 0-3.768 1.095 6.568 6.568 0 0 0-2.498 2.918 6.249 6.249 0 0 0-.386 3.755 6.42 6.42 0 0 0 1.856 3.328 6.879 6.879 0 0 0 3.473 1.78c1.315.25 2.68.121 3.919-.37a6.728 6.728 0 0 0 3.043-2.395A6.309 6.309 0 0 0 14.177 6.5c-.003-1.723-.719-3.374-1.99-4.593A6.948 6.948 0 0 0 7.395 0Zm0 12a5.919 5.919 0 0 1-3.189-.927 5.558 5.558 0 0 1-2.113-2.468 5.288 5.288 0 0 1-.327-3.178 5.433 5.433 0 0 1 1.57-2.816 5.82 5.82 0 0 1 2.94-1.505 5.971 5.971 0 0 1 3.315.313 5.693 5.693 0 0 1 2.576 2.025c.63.905.967 1.968.967 3.056a5.393 5.393 0 0 1-1.683 3.887A5.875 5.875 0 0 1 7.395 12ZM5.308 6.5c0 .42.138.829.394 1.17.256.34.617.595 1.033.727.415.133.864.137 1.282.012A2.088 2.088 0 0 0 9.064 7.7a.546.546 0 0 1 .73-.1.485.485 0 0 1 .104.7 3.132 3.132 0 0 1-1.57 1.064 3.26 3.26 0 0 1-1.923-.018 3.125 3.125 0 0 1-1.55-1.092 2.916 2.916 0 0 1-.59-1.754c0-.63.206-1.243.59-1.754.385-.51.927-.893 1.55-1.092a3.26 3.26 0 0 1 1.923-.018c.627.188 1.177.56 1.571 1.064a.485.485 0 0 1-.104.7.546.546 0 0 1-.73-.1 2.088 2.088 0 0 0-1.048-.709 2.173 2.173 0 0 0-1.282.012 2.083 2.083 0 0 0-1.033.728c-.256.34-.394.75-.394 1.169Z" fill="#fff"/></svg>