<svg viewBox="0 0 33 33" fill="none" xmlns="http://www.w3.org/2000/svg"><path d="M16.03 16.334a6.013 6.013 0 1 0 0-12.026 6.013 6.013 0 0 0 0 12.026Zm0 2.004a8.016 8.016 0 1 1 0-16.033 8.016 8.016 0 0 1 0 16.033Z" fill="#fff"/><path d="M16.03 16.333a1.002 1.002 0 0 1 1.003 1.002v8.017a1.002 1.002 0 1 1-2.004 0v-8.017a1.002 1.002 0 0 1 1.002-1.002Z" fill="#fff"/><path d="M12.023 20.627v2.034c-3.578.573-6.013 1.812-6.013 2.691 0 1.181 4.381 3.007 10.02 3.007 5.64 0 10.022-1.826 10.022-3.007 0-.881-2.435-2.118-6.013-2.691v-2.034c4.67.687 8.017 2.545 8.017 4.726 0 2.765-5.383 5.01-12.025 5.01s-12.025-2.245-12.025-5.01c0-2.183 3.347-4.039 8.017-4.726Z" fill="#fff"/></svg>