<svg viewBox="0 0 23 22" fill="none" xmlns="http://www.w3.org/2000/svg"><path d="M10.128 5.272 6.838 1.51c-.38-.434-1.075-.432-1.516.006L2.616 4.2c-.805.798-1.036 1.984-.57 2.935a28.27 28.27 0 0 0 13.19 13.08c.96.46 2.156.232 2.961-.566l2.731-2.71c.443-.438.444-1.13.002-1.506l-3.813-3.24c-.398-.34-1.018-.296-1.418.101l-1.326 1.316a.45.45 0 0 1-.538.085 14.09 14.09 0 0 1-5.214-5.17.442.442 0 0 1 .086-.533l1.323-1.311c.4-.399.444-1.015.098-1.411v0Z" stroke="#FDB505" stroke-width="2.01" stroke-linecap="round" stroke-linejoin="round"/></svg>