<svg viewBox="0 0 33 33" fill="none" xmlns="http://www.w3.org/2000/svg"><path d="m14.103 8.8-4.52-5.218c-.521-.6-1.477-.598-2.082.009L3.784 7.313c-1.106 1.108-1.423 2.753-.783 4.071A39.024 39.024 0 0 0 21.12 29.53c1.317.64 2.96.323 4.067-.785l3.752-3.758c.608-.608.61-1.569.003-2.09l-5.238-4.496c-.548-.47-1.399-.409-1.948.142l-1.823 1.825a.617.617 0 0 1-.738.118 19.45 19.45 0 0 1-7.162-7.171.619.619 0 0 1 .118-.74l1.817-1.819c.55-.553.61-1.408.135-1.957V8.8Z" stroke="#fff" stroke-width="2.004" stroke-linecap="round" stroke-linejoin="round"/></svg>